<?xml version="1.0" encoding="iso-8859-1"?>
<!-- Uploaded to: SVG Repo, www.svgrepo.com, Generator: SVG Repo Mixer Tools -->
<!DOCTYPE svg PUBLIC "-//W3C//DTD SVG 1.1//EN" "http://www.w3.org/Graphics/SVG/1.1/DTD/svg11.dtd">
<svg fill="#000000" version="1.1" id="Capa_1" xmlns="http://www.w3.org/2000/svg" xmlns:xlink="http://www.w3.org/1999/xlink" 
	 width="800px" height="800px" viewBox="0 0 963.139 963.139"
	 xml:space="preserve">
<g>
	<path d="M174.839,11.069c-33.1,0-60,26.9-60,60v118h534.1v-118c0-33.1-26.9-60-60-60H174.839z"/>
	<path d="M781.74,662.869c0,0,30.699-340,40.898-453.1c1.4-15.5,14.4-27.3,29.9-27.3h62.4c26.301,0,48.199-21.9,48.199-48.2
		s-21.898-48.2-48.199-48.2H787.639c-13.898,0-26.699,6.8-36.299,16.5c-10.801,11-15.201,22.7-17.1,37.6l-10.4,82.7
		c-1.9,15-14.6,26.2-29.801,26.2h-45.1h-534.1h-57c-33.5,0-60,28.4-57.7,61.8l28,350c2.2,31.5,28.3,55.9,59.9,55.9h636
		C754.34,716.67,779.639,693.17,781.74,662.869z"/>
	<path d="M230.239,861.869c0-39.399-25.3-72.899-60.5-85.199c-9.3-3.2-19.3-5-29.7-5c-10.4,0-20.4,1.8-29.7,5
		c-35.2,12.3-60.5,45.8-60.5,85.199c0,49.801,40.4,90.2,90.2,90.2C189.839,952.069,230.239,911.67,230.239,861.869z"/>
	<path d="M760.139,861.869c0-39.399-25.299-72.899-60.5-85.199c-9.299-3.2-19.299-5-29.699-5s-20.4,1.8-29.699,5
		c-35.201,12.3-60.5,45.8-60.5,85.199c0,49.801,40.398,90.2,90.199,90.2C719.84,952.069,760.139,911.67,760.139,861.869z"/>
</g>
</svg>